<svg preserveAspectRatio="xMidYMid meet" id="comp-k2erd2mnsvgcontent" data-bbox="21.5 47.5 157 105" xmlns="http://www.w3.org/2000/svg" width="200" height="200" viewBox="21.5 47.5 157 105" data-type="color" role="img">
    <g>
        <path d="M178.5 132.443h-10.25V78.702h-44.924V68.401H178.5v64.042z" fill="#08F3D2" data-color="1"></path>
        <path fill="#0B174C" d="M123.514 72.608V47.5H21.5v64.674h14.183l16.88 15.218v-15.218h19.546v25.109h70.951V152.5l16.881-15.217h14.182V72.608h-50.609zm-72.446 38.064v13.354l-14.813-13.354h-13.26v-61.67h99.024v23.606h-49.91v2.836h-38.83v1.502h38.83v13.612h-38.83v1.502h38.83v6.168h-38.83v1.502h38.83v10.941H51.068zm121.56 25.109h-13.26l-14.814 13.354v-13.354h-70.95v-61.67h99.024v61.67z" data-color="2"></path>
        <path fill="#0B174C" d="M82.944 108.209l4.081.96c.042.01.076.039.096.088a.137.137 0 0 1-.009.123l-2.188 3.556a1.874 1.874 0 0 0 .268 2.311l3.884 3.904a1.849 1.849 0 0 0 2.3.271l3.592-2.228a.138.138 0 0 1 .129-.006.132.132 0 0 1 .081.094l.943 4.047a1.861 1.861 0 0 0 1.822 1.448l5.508-.015a1.863 1.863 0 0 0 1.809-1.439l.98-4.121c.01-.041.04-.076.11-.106a.136.136 0 0 1 .121.009l3.524 2.18a1.853 1.853 0 0 0 2.296-.271l3.908-3.927a1.875 1.875 0 0 0 .271-2.307l-2.197-3.592c-.023-.037-.026-.08 0-.146a.134.134 0 0 1 .093-.08l4.039-.972a1.87 1.87 0 0 0 1.432-1.817l.02-5.541a1.862 1.862 0 0 0-1.441-1.832l-4.079-.959c-.041-.01-.076-.04-.099-.096a.135.135 0 0 1 .009-.122l2.187-3.546a1.874 1.874 0 0 0-.266-2.314l-3.891-3.911a1.849 1.849 0 0 0-2.301-.268l-3.582 2.228a.136.136 0 0 1-.129.007.134.134 0 0 1-.081-.094l-.947-4.047a1.862 1.862 0 0 0-1.821-1.445l-5.509.015a1.865 1.865 0 0 0-1.808 1.436l-.984 4.114a.134.134 0 0 1-.079.093l-.036.015a.136.136 0 0 1-.121-.009l-3.518-2.173a1.85 1.85 0 0 0-2.294.273l-3.908 3.928a1.875 1.875 0 0 0-.269 2.308l2.194 3.581a.132.132 0 0 1 .012.115l-.015.036a.133.133 0 0 1-.092.081l-4.04.97c-.841.202-1.43.95-1.432 1.818l-.015 5.547c0 .876.592 1.629 1.442 1.828zm-.104-7.373a.545.545 0 0 1 .417-.53l4.04-.97c.458-.11.836-.438 1.009-.87l.014-.035c.172-.429.131-.92-.11-1.314l-2.194-3.581a.546.546 0 0 1 .079-.673l3.909-3.929a.54.54 0 0 1 .668-.078l3.516 2.173a1.47 1.47 0 0 0 1.357.089c.427-.179.747-.556.855-1.008l.984-4.113a.546.546 0 0 1 .528-.42l5.511-.015c.254 0 .472.173.53.421l.946 4.047c.108.462.435.844.882 1.025.427.172.917.131 1.31-.113l3.582-2.228a.547.547 0 0 1 .671.078l3.891 3.911c.18.18.211.458.077.675l-2.187 3.546a1.482 1.482 0 0 0-.101 1.346c.179.435.558.759 1.013.866l4.079.959a.542.542 0 0 1 .42.534l-.02 5.541a.546.546 0 0 1-.418.53l-4.039.972a1.471 1.471 0 0 0-1.018.894 1.47 1.47 0 0 0 .107 1.32l2.197 3.592a.549.549 0 0 1-.079.673l-3.907 3.927a.542.542 0 0 1-.671.08l-3.523-2.179a1.466 1.466 0 0 0-1.35-.093c-.43.179-.752.557-.86 1.011l-.98 4.121a.545.545 0 0 1-.527.42l-5.51.015a.54.54 0 0 1-.529-.422l-.943-4.048a1.466 1.466 0 0 0-2.191-.915l-3.592 2.227a.546.546 0 0 1-.671-.079l-3.886-3.906a.547.547 0 0 1-.078-.674l2.188-3.556c.246-.399.285-.897.117-1.3l-.015-.039a1.462 1.462 0 0 0-1.012-.864l-4.081-.96a.543.543 0 0 1-.42-.534l.015-5.547z" data-color="2"></path>
        <path fill="#0B174C" d="M100.681 111.248c4.248 0 7.705-3.474 7.705-7.743 0-4.27-3.456-7.743-7.705-7.743-4.248 0-7.705 3.474-7.705 7.743s3.457 7.743 7.705 7.743zm0-14.159c3.52 0 6.384 2.878 6.384 6.415s-2.864 6.415-6.384 6.415c-3.52 0-6.384-2.878-6.384-6.415s2.864-6.415 6.384-6.415z" data-color="2"></path>
        <path d="M165.252 92.018v1.502h-39.254v-1.502h39.254z" fill="#0B174C" data-color="2"></path>
        <path d="M165.252 99.461v1.502h-10.24v-1.502h10.24z" fill="#0B174C" data-color="2"></path>
        <path d="M146.82 99.461v1.502h-20.822v-1.502h20.822z" fill="#0B174C" data-color="2"></path>
        <path d="M165.252 106.904v1.502h-39.254v-1.502h39.254z" fill="#0B174C" data-color="2"></path>
        <path d="M165.252 114.347v1.502h-39.254v-1.502h39.254z" fill="#0B174C" data-color="2"></path>
        <path d="M110.678 60.559v1.502H33.279v-1.502h77.399z" fill="#0B174C" data-color="2"></path>
        <path d="M110.678 68.002v1.502H66.735v-1.502h43.943z" fill="#0B174C" data-color="2"></path>
        <path d="M54.101 68.002v1.502H33.279v-1.502h20.822z" fill="#0B174C" data-color="2"></path>
        <path d="M62.483 82.887v1.502H33.279v-1.502h29.204z" fill="#0B174C" data-color="2"></path>
    </g>
</svg>