<svg preserveAspectRatio="xMidYMid meet" id="comp-k2ewpegmsvgcontent" data-bbox="23 23 154 154" xmlns="http://www.w3.org/2000/svg" width="200" height="200" viewBox="23 23 154 154" data-type="color" role="img">
    <g>
        <path fill="#08F3D2" d="M100.012 154.364c-11.677 0-22.819-3.63-32.222-10.498l5.671-7.764c7.745 5.657 16.926 8.648 26.551 8.648 24.85 0 45.068-20.217 45.068-45.068 0-16.997-9.405-32.376-24.544-40.135l4.385-8.556c18.365 9.412 29.773 28.069 29.773 48.691 0 30.152-24.53 54.682-54.682 54.682z" data-color="1"></path>
        <path fill="#0B174C" d="M100 91.697c-4.641 0-8.417 3.776-8.417 8.417s3.776 8.417 8.417 8.417 8.417-3.776 8.417-8.417-3.776-8.417-8.417-8.417zm0 15.468a7.06 7.06 0 0 1-7.052-7.052c0-3.888 3.163-7.052 7.052-7.052s7.052 3.163 7.052 7.052a7.06 7.06 0 0 1-7.052 7.052z" data-color="2"></path>
        <path fill="#0B174C" d="M168.284 99.204l-17.721-3.157a50.663 50.663 0 0 0-14.538-31.646 50.661 50.661 0 0 0-31.958-14.851l-3.155-17.711c-.074-.448-.458-.773-.912-.773s-.838.325-.91.765l-3.157 17.721a50.669 50.669 0 0 0-31.769 14.66 50.666 50.666 0 0 0-14.728 31.836l-17.712 3.155a.921.921 0 0 0-.773.912c0 .454.325.837.765.91l17.72 3.157a50.667 50.667 0 0 0 14.75 31.858 50.669 50.669 0 0 0 31.747 14.638l3.155 17.713c.074.448.457.773.912.773s.838-.325.91-.765l3.156-17.72a50.677 50.677 0 0 0 31.882-14.775 50.676 50.676 0 0 0 14.614-31.723l17.713-3.155a.921.921 0 0 0 .773-.912.916.916 0 0 0-.764-.91zm-33.228-33.842A49.301 49.301 0 0 1 149.175 95.8l-8.411-1.498c-1.136-8.041-4.592-15.484-10.018-21.57l2.283-4.143a.922.922 0 0 0-1.274-1.275l-4.13 2.271c-6.132-5.552-13.659-9.083-21.811-10.234l-1.498-8.409a49.296 49.296 0 0 1 30.74 14.42zm-14.334 44.134l18.627-3.318a39.506 39.506 0 0 1-9.434 20.199l-9.193-16.881zm-1.417.253l11.836 21.733-21.563-11.743 1.519-8.528 8.208-1.462zm-9.979 11.407l16.689 9.089a39.542 39.542 0 0 1-19.95 9.218l3.261-18.307zM100 113.99c-7.651 0-13.876-6.225-13.876-13.876S92.349 86.238 100 86.238s13.876 6.225 13.876 13.876S107.651 113.99 100 113.99zm-6.065 25.473a39.519 39.519 0 0 1-19.973-9.237l16.693-9.18 3.28 18.417zm-25.07-7.991l11.83-21.723 8.208 1.462 1.499 8.416-21.537 11.845zm1.22-5.095c-5.039-5.731-8.287-12.684-9.434-20.199l18.627 3.318-9.193 16.881zm9.013-35.614l-18.447 3.286a39.522 39.522 0 0 1 9.288-20.033l9.159 16.747zm1.418-.252l-11.65-21.304L90.34 80.95l-1.437 8.067-8.387 1.494zm10.076-10.978l-16.937-9.262c5.747-5.079 12.732-8.354 20.28-9.506l-3.343 18.768zm15.473-18.767c7.556 1.153 14.541 4.427 20.292 9.515l-16.938 9.315-3.354-18.83zm25.058 8.451L119.42 90.458c-.007.012-.01.026-.016.038l-8.307-1.48-1.425-8.002 21.451-11.797zM130.046 74c4.964 5.704 8.166 12.603 9.302 20.049l-18.53-3.301L130.046 74zM100 34.502l9.578 53.768a15.165 15.165 0 0 0-8.895-3.38v-7.751a.682.682 0 0 0-1.364 0v7.751a15.165 15.165 0 0 0-8.895 3.38L100 34.502zM65.129 65.177a49.302 49.302 0 0 1 30.557-14.236l-1.498 8.409c-8.145 1.151-15.675 4.681-21.802 10.226l-4.139-2.264a.92.92 0 0 0-1.147.128.921.921 0 0 0-.128 1.147l2.273 4.156c-5.42 6.085-8.873 13.527-10.007 21.559L50.829 95.8c1-11.547 6.061-22.4 14.3-30.623zm23.028 25.359a15.164 15.164 0 0 0-3.383 9.009h-7.862a.682.682 0 1 0 0 1.364h7.869a15.17 15.17 0 0 0 3.376 8.782l-53.768-9.578 53.768-9.577zM65.15 135.072a49.308 49.308 0 0 1-14.323-30.644l8.409 1.498c1.146 8.114 4.651 15.61 10.156 21.724l-2.422 4.447a.924.924 0 1 0 1.275 1.274l4.445-2.444c6.072 5.386 13.492 8.822 21.496 9.952l1.498 8.409a49.312 49.312 0 0 1-30.534-14.216zM100 165.725l-9.578-53.768a15.165 15.165 0 0 0 8.895 3.38v7.979a.682.682 0 0 0 1.364 0v-7.979a15.165 15.165 0 0 0 8.895-3.38L100 165.725zm34.982-30.785a49.31 49.31 0 0 1-30.667 14.346l1.498-8.409c7.992-1.129 15.411-4.559 21.48-9.937l4.462 2.43a.922.922 0 0 0 1.146-.129.92.92 0 0 0 .128-1.146l-2.421-4.446c5.504-6.113 9.01-13.613 10.156-21.724l8.409-1.498a49.31 49.31 0 0 1-14.191 30.513zm-23.139-25.248a15.16 15.16 0 0 0 3.376-8.782h7.869a.682.682 0 1 0 0-1.364h-7.862a15.162 15.162 0 0 0-3.383-9.009l37.604 6.699a.68.68 0 0 0 .486.207c.015 0 .03 0 .046-.002a.69.69 0 0 0 .249-.066l15.384 2.74-53.769 9.577z" data-color="2"></path>
        <path fill="#0B174C" d="M100 28.914a2.96 2.96 0 0 0 2.957-2.957c0-1.631-1.327-2.957-2.957-2.957s-2.957 1.327-2.957 2.957A2.96 2.96 0 0 0 100 28.914zm0-4.549c.878 0 1.592.714 1.592 1.592 0 .878-.714 1.592-1.592 1.592s-1.592-.714-1.592-1.592c0-.878.714-1.592 1.592-1.592z" data-color="2"></path>
        <path fill="#0B174C" d="M100 171.086a2.96 2.96 0 0 0-2.957 2.957c0 1.631 1.327 2.957 2.957 2.957s2.957-1.327 2.957-2.957a2.96 2.96 0 0 0-2.957-2.957zm0 4.549a1.594 1.594 0 0 1-1.592-1.592c0-.878.714-1.592 1.592-1.592s1.592.714 1.592 1.592c0 .878-.714 1.592-1.592 1.592z" data-color="2"></path>
        <path fill="#0B174C" d="M174.043 97.043c-1.631 0-2.957 1.327-2.957 2.957s1.327 2.957 2.957 2.957c1.631 0 2.957-1.327 2.957-2.957s-1.327-2.957-2.957-2.957zm0 4.549c-.878 0-1.592-.714-1.592-1.592s.714-1.592 1.592-1.592 1.592.714 1.592 1.592-.714 1.592-1.592 1.592z" data-color="2"></path>
        <path fill="#0B174C" d="M25.957 97.043C24.327 97.043 23 98.369 23 100s1.327 2.957 2.957 2.957c1.631 0 2.957-1.327 2.957-2.957s-1.326-2.957-2.957-2.957zm0 4.549c-.878 0-1.592-.714-1.592-1.592s.714-1.592 1.592-1.592c.878 0 1.592.714 1.592 1.592s-.714 1.592-1.592 1.592z" data-color="2"></path>
    </g>
</svg>