<svg preserveAspectRatio="xMidYMid meet" id="comp-k2evh8btsvgcontent" data-bbox="32.5 32.5 135.001 134.999" xmlns="http://www.w3.org/2000/svg" width="200" height="200" viewBox="32.5 32.5 135.001 134.999" data-type="color" role="img">
    <g>
        <path fill="#08F3D2" d="M122.506 135.832H77.532c-7.208 0-13.051-5.843-13.051-13.051V77.807c0-7.208 5.843-13.051 13.051-13.051h17.186V78.51H82.469a4.263 4.263 0 0 0-4.263 4.263v34.832a4.557 4.557 0 0 0 4.557 4.557h39.743v13.67z" data-color="1"></path>
        <path fill="#0B174C" d="M117.5 78.5H82.538a4.317 4.317 0 0 0-4.312 4.312v34.963a4.317 4.317 0 0 0 4.312 4.312H117.5a4.317 4.317 0 0 0 4.312-4.312V82.812A4.316 4.316 0 0 0 117.5 78.5zm2.755 39.275a2.758 2.758 0 0 1-2.755 2.755H82.538a2.758 2.758 0 0 1-2.755-2.755V82.812a2.758 2.758 0 0 1 2.755-2.755H117.5a2.758 2.758 0 0 1 2.755 2.755v34.963z" data-color="2"></path>
        <path fill="#0B174C" d="M161.723 94.403c-2.865 0-5.243 2.098-5.694 4.838h-25.923v-9.689h14.132v-1.557h-14.132V77.807c0-4.191-3.41-7.601-7.601-7.601h-10.462V55.762h-1.557v14.444h-9.689V44.02a5.784 5.784 0 0 0 5.159-5.743c0-3.186-2.592-5.777-5.777-5.777s-5.777 2.592-5.777 5.777c0 2.865 2.098 5.243 4.837 5.694v26.235H89.55V55.762h-1.557v14.444H77.532c-4.191 0-7.601 3.41-7.601 7.601v10.149H55.762v1.557h14.169v9.689H43.984c-.415-2.781-2.812-4.923-5.707-4.923a5.784 5.784 0 0 0-5.777 5.777 5.784 5.784 0 0 0 5.777 5.777c2.947 0 5.381-2.22 5.73-5.074h25.925v9.689h-14.17v1.557h14.169v10.774c0 4.191 3.41 7.601 7.601 7.601h10.424v13.857h1.557V130.38h9.689v25.599a5.784 5.784 0 0 0-5.159 5.743c0 3.185 2.592 5.777 5.777 5.777s5.777-2.592 5.777-5.777c0-2.865-2.098-5.243-4.837-5.694V130.38h9.689v13.857h1.557V130.38h10.5c4.191 0 7.601-3.41 7.601-7.601v-10.736h14.132v-1.557h-14.132v-9.689h25.874a5.784 5.784 0 0 0 5.743 5.159 5.784 5.784 0 0 0 5.777-5.777 5.785 5.785 0 0 0-5.778-5.776zM95.96 38.277c0-2.327 1.893-4.22 4.22-4.22s4.22 1.893 4.22 4.22-1.893 4.22-4.22 4.22-4.22-1.893-4.22-4.22zm-57.683 66a4.225 4.225 0 0 1-4.22-4.22 4.225 4.225 0 0 1 4.22-4.22 4.225 4.225 0 0 1 4.22 4.22 4.225 4.225 0 0 1-4.22 4.22zm65.763 57.446c0 2.327-1.893 4.22-4.22 4.22s-4.22-1.893-4.22-4.22 1.893-4.22 4.22-4.22 4.22 1.893 4.22 4.22zm24.509-38.943a6.05 6.05 0 0 1-6.043 6.044H77.532a6.05 6.05 0 0 1-6.043-6.044V77.807a6.05 6.05 0 0 1 6.043-6.043h44.974a6.05 6.05 0 0 1 6.043 6.043v44.973zm33.174-18.38c-2.327 0-4.22-1.893-4.22-4.22s1.893-4.22 4.22-4.22 4.22 1.893 4.22 4.22-1.893 4.22-4.22 4.22z" data-color="2"></path>
    </g>
</svg>