<svg preserveAspectRatio="xMidYMid meet" id="comp-k2ew5f7ksvgcontent" data-bbox="36 54.501 128.002 90.998" xmlns="http://www.w3.org/2000/svg" width="200" height="200" viewBox="36 54.501 128.002 90.998" data-type="color" role="img">
    <g>
        <path fill="#08F3D2" d="M112.861 128.094H58.998C46.317 128.094 36 117.845 36 105.247a22.693 22.693 0 0 1 6.063-15.456 22.986 22.986 0 0 1 12.142-6.889c1.693-7.52 5.78-14.356 11.686-19.467a36.716 36.716 0 0 1 24.028-8.934c3.671 0 7.296.54 10.776 1.604L97.55 66.249a26.044 26.044 0 0 0-7.631-1.134c-12.764 0-23.785 9.443-25.634 21.965-.478 3.233-3.113 5.696-6.408 5.988-6.381.568-11.194 5.804-11.194 12.18 0 6.745 5.524 12.233 12.314 12.233h53.862v10.613z" data-color="1"></path>
        <path fill="#0B174C" d="M114.841 126.323l5.435 1.263a.182.182 0 0 1 .128.116.176.176 0 0 1-.012.161l-2.913 4.681a2.445 2.445 0 0 0 .356 3.042l5.173 5.14a2.484 2.484 0 0 0 3.063.357l4.784-2.933a.187.187 0 0 1 .172-.008.177.177 0 0 1 .108.124l1.256 5.327a2.471 2.471 0 0 0 2.426 1.906l7.335-.02a2.474 2.474 0 0 0 2.409-1.894l1.305-5.425c.013-.055.053-.1.147-.139a.182.182 0 0 1 .161.012l4.693 2.869a2.49 2.49 0 0 0 3.058-.357l5.204-5.17a2.449 2.449 0 0 0 .361-3.037l-2.925-4.729c-.03-.048-.035-.106 0-.192a.181.181 0 0 1 .124-.106l5.379-1.28a2.467 2.467 0 0 0 1.907-2.391l.027-7.294a2.459 2.459 0 0 0-1.918-2.412l-5.432-1.263c-.055-.013-.101-.052-.132-.126a.18.18 0 0 1 .012-.161l2.912-4.668a2.445 2.445 0 0 0-.354-3.046l-5.182-5.148a2.486 2.486 0 0 0-3.064-.353l-4.77 2.933a.186.186 0 0 1-.171.01.177.177 0 0 1-.108-.124l-1.26-5.328a2.474 2.474 0 0 0-2.425-1.902l-7.337.02a2.478 2.478 0 0 0-2.408 1.891l-1.31 5.415a.176.176 0 0 1-.105.122l-.047.02a.182.182 0 0 1-.161-.012l-4.684-2.861a2.485 2.485 0 0 0-3.055.359l-5.205 5.17a2.446 2.446 0 0 0-.358 3.038l2.921 4.714a.174.174 0 0 1 .016.151l-.02.048a.18.18 0 0 1-.123.106l-5.38 1.277a2.462 2.462 0 0 0-1.906 2.393l-.02 7.302a2.452 2.452 0 0 0 1.913 2.412zm-.138-9.706a.718.718 0 0 1 .556-.697l5.38-1.277a1.932 1.932 0 0 0 1.343-1.146l.019-.047a1.92 1.92 0 0 0-.146-1.73l-2.922-4.714a.715.715 0 0 1 .105-.886l5.206-5.171a.724.724 0 0 1 .889-.103l4.683 2.86c.531.324 1.19.374 1.807.117a1.937 1.937 0 0 0 1.139-1.327l1.31-5.414a.723.723 0 0 1 .703-.552l7.339-.02c.338 0 .628.228.706.555l1.26 5.328a1.94 1.94 0 0 0 1.174 1.349 1.957 1.957 0 0 0 1.744-.149l4.77-2.933a.737.737 0 0 1 .894.102l5.182 5.148a.712.712 0 0 1 .103.888l-2.913 4.668a1.926 1.926 0 0 0-.134 1.771c.238.573.743.999 1.349 1.14l5.432 1.263a.718.718 0 0 1 .56.703l-.027 7.294a.72.72 0 0 1-.556.698l-5.379 1.28a1.956 1.956 0 0 0-1.356 1.176 1.916 1.916 0 0 0 .142 1.737l2.925 4.728a.715.715 0 0 1-.106.886l-5.204 5.169a.727.727 0 0 1-.893.105l-4.692-2.869a1.974 1.974 0 0 0-1.798-.122 1.934 1.934 0 0 0-1.145 1.331l-1.305 5.425a.721.721 0 0 1-.702.552l-7.337.02a.72.72 0 0 1-.705-.556l-1.256-5.328a1.937 1.937 0 0 0-1.176-1.351 1.945 1.945 0 0 0-1.742.147l-4.784 2.932a.733.733 0 0 1-.893-.103l-5.175-5.141a.712.712 0 0 1-.104-.887l2.913-4.681c.328-.526.38-1.181.156-1.711l-.02-.051a1.942 1.942 0 0 0-1.348-1.137l-5.435-1.263a.72.72 0 0 1-.56-.703l.024-7.303z" data-color="2"></path>
        <path fill="#0B174C" d="M138.461 130.323c5.658 0 10.26-4.573 10.26-10.193 0-5.62-4.603-10.193-10.26-10.193-5.658 0-10.261 4.573-10.261 10.193.001 5.62 4.604 10.193 10.261 10.193zm0-18.638c4.687 0 8.501 3.789 8.501 8.445 0 4.656-3.814 8.445-8.501 8.445-4.688 0-8.501-3.788-8.501-8.445s3.814-8.445 8.501-8.445z" data-color="2"></path>
        <path fill="#0B174C" d="M114.196 123.561H58.998c-10.165 0-18.435-8.216-18.435-18.314 0-9.545 7.209-17.385 16.769-18.237.463-.041.832-.376.897-.814 1.105-7.481 4.891-14.351 10.659-19.344a32.136 32.136 0 0 1 21.031-7.819c11.42 0 22.06 6.118 27.768 15.966a1.48 1.48 0 0 0 1.025.711c.43.077.868-.036 1.199-.309a13.3 13.3 0 0 1 8.452-3.032c7.296 0 13.231 5.896 13.231 13.144 0 .264-.008.526-.024.786a.6.6 0 0 0 .162.452.583.583 0 0 0 .426.182h3.282c10.165 0 18.435 8.216 18.435 18.314 0 3.231-.859 6.407-2.483 9.185l-1.347-.777a16.675 16.675 0 0 0 2.272-8.407c0-9.245-7.571-16.766-16.877-16.766h-3.282a2.129 2.129 0 0 1-1.56-.669 2.154 2.154 0 0 1-.583-1.607c.014-.229.021-.459.021-.691 0-6.394-5.236-11.596-11.673-11.596-2.72 0-5.368.95-7.456 2.674-.686.566-1.585.8-2.47.643a3.032 3.032 0 0 1-2.1-1.462c-5.431-9.37-15.554-15.19-26.418-15.19a30.572 30.572 0 0 0-20.007 7.438c-5.489 4.75-9.09 11.285-10.141 18.401-.17 1.15-1.115 2.026-2.299 2.132-8.751.779-15.35 7.956-15.35 16.695 0 9.245 7.571 16.766 16.877 16.766h55.198v1.545z" data-color="2"></path>
    </g>
</svg>