<?xml version="1.0" encoding="UTF-8" standalone="no"?>
<!-- Generator: Adobe Illustrator 18.1.1, SVG Export Plug-In . SVG Version: 6.00 Build 0)  -->

<svg
   xmlns:dc="http://purl.org/dc/elements/1.1/"
   xmlns:cc="http://creativecommons.org/ns#"
   xmlns:rdf="http://www.w3.org/1999/02/22-rdf-syntax-ns#"
   xmlns:svg="http://www.w3.org/2000/svg"
   xmlns="http://www.w3.org/2000/svg"
   xmlns:sodipodi="http://sodipodi.sourceforge.net/DTD/sodipodi-0.dtd"
   xmlns:inkscape="http://www.inkscape.org/namespaces/inkscape"
   version="1.1"
   id="Lager_1"
   x="0px"
   y="0px"
   viewBox="0 0 400.00001 399.99999"
   enable-background="new 0 0 595.3 841.9"
   xml:space="preserve"
   sodipodi:docname="bankid.svg"
   width="400"
   height="400"
   inkscape:version="0.92.2 (5c3e80d, 2017-08-06)"><metadata
     id="metadata93"><rdf:RDF><cc:Work
         rdf:about=""><dc:format>image/svg+xml</dc:format><dc:type
           rdf:resource="http://purl.org/dc/dcmitype/StillImage" /><dc:title></dc:title></cc:Work></rdf:RDF></metadata><defs
     id="defs91" /><sodipodi:namedview
     pagecolor="#ffffff"
     bordercolor="#666666"
     borderopacity="1"
     objecttolerance="10"
     gridtolerance="10"
     guidetolerance="10"
     inkscape:pageopacity="0"
     inkscape:pageshadow="2"
     inkscape:window-width="1920"
     inkscape:window-height="1137"
     id="namedview89"
     showgrid="false"
     fit-margin-top="0"
     fit-margin-left="0"
     fit-margin-right="0"
     fit-margin-bottom="0"
     inkscape:zoom="0.28031832"
     inkscape:cx="155.44999"
     inkscape:cy="288.14491"
     inkscape:window-x="-8"
     inkscape:window-y="-8"
     inkscape:window-maximized="1"
     inkscape:current-layer="Lager_1" /><g
     id="g86"
     transform="translate(-100.15582,-217)"><path
       d="m 241.9,423.6 13.2,-83.2 c -5.2,0 -14.1,0 -14.1,0 -6.6,0 -15.1,-3.7 -17.6,-10.5 -0.8,-2.3 -2.7,-10.2 8.2,-17.9 3.9,-2.7 6.4,-5.7 6.9,-8 0.5,-2.4 -0.1,-4.5 -1.8,-6.1 -2.4,-2.3 -7.1,-3.6 -13.1,-3.6 -10.1,0 -17.2,5.8 -17.9,10 -0.5,3.1 1.9,5.6 4,7.2 6.3,4.7 7.8,11.5 3.9,17.9 -4,6.6 -12.7,10.9 -22,11 0,0 -9.2,0 -14.4,0 -1.2,8.1 -20.8,132.3 -22.3,142.1 H 233 c 0.7,-4.4 4.3,-27.9 9.2,-58.9 z"
       id="path64"
       inkscape:connector-curvature="0"
       style="fill:#479cbe" /><path
       d="M 346.5,267.6 H 267 l -10.6,67.3 h 13.5 c 7.4,0 14.4,-3.4 17.4,-8.3 1,-1.6 1.4,-3 1.4,-4.3 0,-2.8 -1.9,-4.9 -3.8,-6.3 -5.2,-3.9 -6.3,-8 -6.3,-10.9 0,-0.6 0,-1.1 0.1,-1.6 1.1,-7.1 10.7,-14.8 23.4,-14.8 7.6,0 13.4,1.8 16.9,5.1 3.1,2.9 4.3,7 3.4,11.3 -1.1,5.1 -6.2,9.3 -9.1,11.4 -7.7,5.4 -6.7,10.1 -6.2,11.5 1.6,4.2 7.7,6.9 12.4,6.9 H 340 c 0,0 0,0 0,0.1 28,0.2 43,13.1 38.3,43.1 -4.4,27.9 -25.8,39.9 -51.3,40.1 l -10.1,64.4 h 14.9 c 62.9,0 114.3,-40.4 124.4,-104.2 12.5,-79.2 -37.7,-110.8 -109.7,-110.8 z"
       id="path66"
       inkscape:connector-curvature="0"
       style="fill:#00a5c3" /><path
       d="M 346.5,267.6 H 267 l -10.6,67.3 h 13.5 c 7.4,0 14.4,-3.4 17.4,-8.3 1,-1.6 1.4,-3 1.4,-4.3 0,-2.8 -1.9,-4.9 -3.8,-6.3 -5.2,-3.9 -6.3,-8 -6.3,-10.9 0,-0.6 0,-1.1 0.1,-1.6 1.1,-7.1 10.7,-14.8 23.4,-14.8 7.6,0 13.4,1.8 16.9,5.1 3.1,2.9 4.3,7 3.4,11.3 -1.1,5.1 -6.2,9.3 -9.1,11.4 -7.7,5.4 -6.7,10.1 -6.2,11.5 1.6,4.2 7.7,6.9 12.4,6.9 H 340 c 0,0 0,0 0,0.1 28,0.2 43,13.1 38.3,43.1 -4.4,27.9 -25.8,39.9 -51.3,40.1 l -10.1,64.4 h 14.9 c 62.9,0 114.3,-40.4 124.4,-104.2 12.5,-79.2 -37.7,-110.8 -109.7,-110.8 z"
       id="path68"
       inkscape:connector-curvature="0"
       style="fill:#235971" /><g
       id="g78"><path
         d="m 150.7,511.2 h 31.9 c 13.6,0 16.9,6.9 15.9,13.2 -0.8,5.1 -4.3,8.9 -10.3,11.4 7.6,2.9 10.6,7.4 9.5,14.5 -1.4,8.9 -9.1,15.5 -19.2,15.5 h -36.3 z m 21.1,22.6 c 6.2,0 9.1,-3.3 9.7,-7.2 0.6,-4.2 -1.3,-7.1 -7.5,-7.1 h -5.5 l -2.2,14.3 z m -3.4,23.6 c 6.4,0 10.1,-2.6 11,-7.9 0.7,-4.6 -1.9,-7.3 -8.1,-7.3 H 165 l -2.4,15.3 h 5.8 z"
         id="path70"
         inkscape:connector-curvature="0"
         style="fill:#235971" /><path
         d="m 242.4,566.2 c -8.3,0.6 -12.3,-0.3 -14.3,-3.9 -4.4,2.7 -9.3,4.1 -14.5,4.1 -9.4,0 -12.7,-4.9 -11.8,-10.3 0.4,-2.6 1.9,-5.1 4.3,-7.2 5.2,-4.5 18,-5.1 23,-8.5 0.4,-3.8 -1.1,-5.2 -5.8,-5.2 -5.5,0 -10.1,1.8 -18,7.2 l 1.9,-12.4 c 6.8,-4.9 13.4,-7.2 21,-7.2 9.7,0 18.3,4 16.7,14.6 l -1.9,12 c -0.7,4.2 -0.5,5.5 4.2,5.6 z M 228,547.4 c -4.4,2.8 -12.6,2.3 -13.5,8.1 -0.4,2.7 1.3,4.7 4,4.7 2.6,0 5.8,-1.1 8.4,-2.9 -0.2,-1 -0.1,-2 0.2,-3.9 z"
         id="path72"
         inkscape:connector-curvature="0"
         style="fill:#235971" /><path
         d="m 257.9,523.5 h 16.6 l -0.9,5.5 c 5.3,-4.5 9.3,-6.2 14.5,-6.2 9.3,0 13.6,5.7 12.1,15 l -4.3,27.9 h -16.6 l 3.6,-23.1 c 0.7,-4.2 -0.6,-6.2 -3.8,-6.2 -2.6,0 -5,1.4 -7.3,4.5 l -3.8,24.7 h -16.6 z"
         id="path74"
         inkscape:connector-curvature="0"
         style="fill:#235971" /><path
         d="m 313.1,511.2 h 16.6 l -4.2,26.8 15.9,-14.5 h 20.5 l -20.4,18 16.4,24.2 H 337 l -12.6,-19.5 h -0.2 l -3,19.5 h -16.6 z"
         id="path76"
         inkscape:connector-curvature="0"
         style="fill:#235971" /></g><g
       id="g84"><path
         d="M 371.9,511.2 H 391 l -8.4,54.5 h -19.1 z"
         id="path80"
         inkscape:connector-curvature="0"
         style="fill:#479cbe" /><path
         d="m 400.3,511.2 h 27.3 c 21.1,0 27.2,15.3 25.2,28 -1.9,12.4 -11.7,26.5 -30.2,26.5 h -30.8 z m 17.7,41.5 c 9.3,0 14.4,-4.6 15.9,-14.3 1.1,-7.2 -1.1,-14.3 -11.4,-14.3 h -5.1 l -4.4,28.6 z"
         id="path82"
         inkscape:connector-curvature="0"
         style="fill:#479cbe" /></g></g></svg>